<svg width="160" height="61" viewBox="0 0 160 61" fill="none" xmlns="http://www.w3.org/2000/svg">
<path d="M12.2909 41.2211C12.8477 41.5291 13.2256 41.8171 13.4245 42.0853C13.6234 42.3535 13.7228 42.6117 13.7228 42.8601C13.7228 43.168 13.6433 43.5256 13.4941 43.9328C13.335 44.34 13.1461 44.7374 12.9273 45.1347L12.3406 45.1744C11.8633 44.5884 11.1672 44.0719 10.2623 43.6447C9.34742 43.2077 8.3729 42.9892 7.33872 42.9892C6.97079 42.9892 6.57303 43.0289 6.13549 43.0885C5.69795 43.158 5.29024 43.2872 4.91237 43.466C4.53449 43.6447 4.21628 43.903 3.96768 44.2407C3.71908 44.5784 3.58981 44.9956 3.58981 45.5022C3.58981 46.3961 3.98757 47.0418 4.79304 47.4391C5.58856 47.8265 6.58297 48.1642 7.75637 48.4522C8.59167 48.6509 9.40709 48.8893 10.1927 49.1873C10.9782 49.4853 11.6743 49.8627 12.271 50.3196C12.8776 50.7865 13.3549 51.3626 13.7029 52.0678C14.051 52.7631 14.23 53.6372 14.23 54.6702C14.23 55.7032 14.0211 56.6071 13.6035 57.3819C13.1858 58.1566 12.619 58.7923 11.9229 59.3188C11.2169 59.8353 10.4015 60.2326 9.45681 60.4908C8.51212 60.759 7.54755 60.8881 6.53325 60.8881C5.54879 60.8881 4.66377 60.8087 3.87819 60.6597C3.0926 60.5107 2.4363 60.312 1.89932 60.0935C1.19329 59.8154 0.706029 59.5273 0.427595 59.2294C0.139217 58.9314 0 58.6334 0 58.3255C0 57.9679 0.0994407 57.5805 0.298322 57.1931C0.497203 56.8058 0.745805 56.3588 1.05407 55.8522C1.25295 56.0211 1.52144 56.2296 1.86948 56.478C2.21753 56.7263 2.63518 56.9647 3.12244 57.1931C3.6097 57.4216 4.14668 57.6103 4.73338 57.7593C5.32008 57.9182 5.94655 57.9878 6.62275 57.9878C7.11995 57.9878 7.61715 57.9381 8.08453 57.8388C8.56184 57.7394 8.98944 57.5805 9.36731 57.3521C9.74518 57.1236 10.0535 56.8157 10.2921 56.4283C10.5308 56.031 10.6501 55.5443 10.6501 54.9582C10.6501 54.3722 10.5208 53.8855 10.2722 53.508C10.0236 53.1306 9.68552 52.8127 9.26787 52.5644C8.85022 52.3161 8.38285 52.1075 7.86576 51.9585C7.34866 51.8095 6.82163 51.6705 6.29459 51.5612C5.48912 51.3924 4.70354 51.1738 3.96768 50.9056C3.23182 50.6375 2.57551 50.2799 1.99876 49.8329C1.422 49.3859 0.964574 48.8198 0.616532 48.1543C0.26849 47.4788 0.0894966 46.6743 0.0894966 45.7108C0.0894966 44.787 0.288378 43.9725 0.676196 43.2574C1.06401 42.5422 1.60099 41.9562 2.27719 41.4893C2.95339 41.0324 3.71908 40.6748 4.57427 40.4364C5.42946 40.1981 6.32443 40.0789 7.24922 40.0789C8.31324 40.0789 9.28776 40.1881 10.1728 40.4166C11.0479 40.645 11.7539 40.9132 12.2909 41.2211Z" fill="white"/>
<path d="M36.2163 50.3396C36.2163 51.7104 36.0473 53.0314 35.7092 54.3128C35.3711 55.5842 34.8341 56.7165 34.0883 57.6999C33.3425 58.6832 32.3879 59.4679 31.2045 60.0539C30.0212 60.64 28.5992 60.938 26.9087 60.938C25.2282 60.938 23.8062 60.6598 22.6427 60.0937C21.4792 59.5374 20.5346 58.7726 19.7987 57.829C19.0728 56.8754 18.5358 55.763 18.1977 54.4916C17.8596 53.2202 17.6906 51.8792 17.6906 50.4787C17.6906 49.0782 17.8894 47.7472 18.2772 46.4857C18.6651 45.2242 19.2617 44.1217 20.0473 43.188C20.8329 42.2444 21.8074 41.4994 22.9708 40.9432C24.1343 40.3869 25.5066 40.0989 27.0777 40.0989C28.7285 40.0989 30.1306 40.377 31.2841 40.9432C32.4376 41.4994 33.3723 42.2543 34.0983 43.188C34.8242 44.1217 35.3612 45.2143 35.6993 46.446C36.0473 47.6677 36.2163 48.9689 36.2163 50.3396ZM32.4674 50.3396C32.4674 49.4755 32.3879 48.6113 32.2387 47.7571C32.0796 46.9029 31.8111 46.1281 31.4134 45.4427C31.0156 44.7574 30.4687 44.2011 29.7626 43.784C29.0566 43.3668 28.1418 43.1483 27.0181 43.1483C25.9541 43.1483 25.0591 43.3568 24.3332 43.784C23.6172 44.2011 23.0405 44.7574 22.6228 45.4427C22.1952 46.1281 21.8969 46.9029 21.708 47.7571C21.529 48.6113 21.4295 49.4755 21.4295 50.3396C21.4295 51.2137 21.5091 52.0878 21.6582 52.9917C21.8074 53.8856 22.1057 54.6902 22.5234 55.4054C22.941 56.1205 23.5078 56.7066 24.2139 57.1734C24.9199 57.6303 25.8149 57.8687 26.9186 57.8687C28.0423 57.8687 28.9771 57.6403 29.703 57.1734C30.4388 56.7165 30.9957 56.1205 31.3935 55.4054C31.7912 54.6902 32.0597 53.8856 32.2188 52.9917C32.3879 52.0878 32.4674 51.2137 32.4674 50.3396Z" fill="white"/>
<path d="M57.7352 57.8589C58.491 57.8589 59.1871 57.7595 59.8235 57.541C60.45 57.3324 60.9969 57.0742 61.4444 56.7563C61.8918 56.4484 62.2399 56.1206 62.4984 55.763C62.747 55.4154 62.8763 55.0975 62.8763 54.8095V40.3373H63.1249C63.1746 40.3373 63.2542 40.3274 63.3536 40.3175C63.4531 40.3075 63.5426 40.2976 63.6321 40.2976C64.4176 40.2976 65.0839 40.5062 65.6308 40.9035C66.1777 41.3108 66.4562 42.0458 66.4562 43.1086V60.3023H62.8763V58.4846C62.3194 59.1203 61.5339 59.6865 60.5196 60.1831C59.5152 60.6798 58.2026 60.9281 56.6115 60.9281C54.9807 60.9281 53.7178 60.6798 52.8229 60.1732C51.9179 59.6666 51.2616 59.0309 50.8241 58.2363C50.3866 57.4516 50.128 56.5875 50.0485 55.6538C49.9689 54.7102 49.9192 53.8162 49.9192 52.9421V40.3373H50.1678C50.2275 40.3373 50.2971 40.3274 50.3965 40.3175C50.4959 40.3075 50.5854 40.2976 50.665 40.2976C51.4506 40.2976 52.1168 40.4963 52.6638 40.8836C53.2107 41.281 53.4891 42.0061 53.4891 43.0689V52.9719C53.4891 54.0645 53.5687 54.9386 53.7178 55.5842C53.867 56.2299 54.1852 56.7265 54.6625 57.0543C55.0802 57.3622 55.5376 57.5708 56.0248 57.69C56.532 57.8092 57.0988 57.8589 57.7352 57.8589Z" fill="white"/>
<path d="M72.6612 57.7793C72.4624 57.2429 72.343 56.6668 72.3033 56.0311C72.2635 55.4054 72.2336 54.7796 72.2336 54.1638V34.4968H72.4922C72.5519 34.4968 72.6215 34.4868 72.7209 34.4769C72.8203 34.467 72.9098 34.457 72.9894 34.457C73.7451 34.457 74.4114 34.6557 74.9683 35.0431C75.5251 35.4304 75.8135 36.1456 75.8135 37.1687V40.5061H82.0783V43.5754H75.8135V54.422C75.8135 56.7165 76.7284 57.8687 78.5481 57.8687C78.9956 57.8687 79.4133 57.7893 79.811 57.6403C80.1988 57.4913 80.5568 57.3025 80.8651 57.094C81.1734 56.8854 81.4319 56.6768 81.6407 56.4881C81.8496 56.2894 81.9888 56.1503 82.0385 56.0709C82.3766 56.4881 82.665 56.8953 82.9036 57.2926C83.1423 57.68 83.2616 58.0674 83.2616 58.425C83.2616 58.6733 83.1323 58.9514 82.8837 59.2394C82.6351 59.5374 82.2772 59.8056 81.8297 60.0639C81.3822 60.3122 80.8253 60.5307 80.169 60.6996C79.5127 60.8684 78.7868 60.9479 78.0012 60.9479C76.5394 60.9479 75.376 60.6698 74.5108 60.1036C73.6457 59.5275 73.0292 58.7627 72.6612 57.7793Z" fill="white"/>
<path d="M86.6725 40.3373H86.9211C86.9808 40.3373 87.0504 40.3274 87.1498 40.3175C87.2492 40.3075 87.3387 40.2976 87.4282 40.2976C88.2138 40.2976 88.8801 40.5062 89.427 40.9035C89.9739 41.3108 90.2523 42.0458 90.2523 43.1086V56.5179C90.2523 57.3324 90.3717 57.9085 90.6103 58.2363C90.849 58.574 91.4058 58.7429 92.271 58.7429V60.2527C92.0224 60.3321 91.6743 60.4116 91.2467 60.4613C90.8092 60.5209 90.3816 60.5507 89.964 60.5507C89.1486 60.5507 88.5221 60.4215 88.0945 60.1732C87.6569 59.9249 87.3387 59.5872 87.1299 59.17C86.9211 58.7528 86.7918 58.286 86.752 57.7595C86.7123 57.243 86.6924 56.7265 86.6924 56.2299V40.3373H86.6725Z" fill="white"/>
<path d="M113.462 50.3396C113.462 51.7104 113.293 53.0314 112.955 54.3128C112.617 55.5842 112.08 56.7165 111.334 57.6999C110.588 58.6832 109.633 59.4679 108.45 60.0539C107.277 60.64 105.845 60.938 104.164 60.938C102.484 60.938 101.052 60.6598 99.8981 60.0937C98.7347 59.5374 97.79 58.7726 97.0641 57.829C96.3282 56.8754 95.8012 55.763 95.4631 54.4916C95.125 53.2202 94.9559 51.8792 94.9559 50.4787C94.9559 49.0782 95.1548 47.7472 95.5426 46.4857C95.9404 45.2242 96.5271 44.1217 97.3127 43.188C98.0983 42.2444 99.0728 41.4994 100.236 40.9432C101.4 40.3869 102.762 40.0989 104.333 40.0989C105.994 40.0989 107.386 40.377 108.54 40.9432C109.693 41.4994 110.628 42.2543 111.364 43.188C112.09 44.1217 112.627 45.2143 112.965 46.446C113.293 47.6677 113.462 48.9689 113.462 50.3396ZM109.713 50.3396C109.713 49.4755 109.633 48.6113 109.484 47.7571C109.325 46.9029 109.057 46.1281 108.659 45.4427C108.261 44.7574 107.714 44.2011 107.008 43.784C106.302 43.3668 105.387 43.1483 104.264 43.1483C103.19 43.1483 102.305 43.3568 101.579 43.784C100.863 44.2011 100.286 44.7574 99.8683 45.4427C99.4506 46.1281 99.1424 46.9029 98.9634 47.7571C98.7844 48.6113 98.685 49.4755 98.685 50.3396C98.685 51.2137 98.7645 52.0878 98.9137 52.9917C99.0728 53.8856 99.3611 54.6902 99.7788 55.4054C100.196 56.1205 100.763 56.7066 101.469 57.1734C102.175 57.6303 103.08 57.8687 104.174 57.8687C105.298 57.8687 106.232 57.6403 106.958 57.1734C107.694 56.7165 108.251 56.1205 108.649 55.4054C109.047 54.6902 109.315 53.8856 109.474 52.9917C109.633 52.0878 109.713 51.2137 109.713 50.3396Z" fill="white"/>
<path d="M118.026 40.4267C118.673 40.4267 119.249 40.5856 119.776 40.9134C120.293 41.2312 120.612 41.7875 120.721 42.5722C121.367 41.9265 122.242 41.3504 123.346 40.8538C124.46 40.3472 125.763 40.0989 127.284 40.0989C129.193 40.0989 130.655 40.5161 131.66 41.3603C132.674 42.2046 133.33 43.2476 133.638 44.5091C133.778 45.0653 133.867 45.6911 133.887 46.3764C133.917 47.0618 133.927 47.7273 133.927 48.3729V60.3122H130.357V48.4921C130.357 47.9657 130.347 47.4492 130.337 46.9625C130.327 46.4758 130.247 46.0188 130.108 45.5917C129.909 44.8666 129.512 44.3005 128.895 43.9131C128.279 43.5257 127.364 43.327 126.16 43.327C124.559 43.327 123.287 43.6449 122.332 44.2707C121.377 44.9064 120.9 45.5818 120.9 46.3069V60.3023H117.32V40.4664H117.529C117.589 40.4664 117.658 40.4565 117.758 40.4465C117.847 40.4267 117.937 40.4267 118.026 40.4267Z" fill="white"/>
<path d="M149.877 41.2211C150.434 41.5291 150.822 41.8171 151.011 42.0853C151.199 42.3535 151.309 42.6117 151.309 42.8601C151.309 43.168 151.229 43.5256 151.08 43.9328C150.921 44.34 150.732 44.7374 150.513 45.1347L149.927 45.1744C149.449 44.5884 148.753 44.0719 147.838 43.6447C146.924 43.2077 145.949 42.9892 144.915 42.9892C144.547 42.9892 144.149 43.0289 143.712 43.0885C143.274 43.158 142.866 43.2872 142.488 43.466C142.111 43.6447 141.792 43.903 141.544 44.2407C141.285 44.5784 141.166 44.9956 141.166 45.5022C141.166 46.3961 141.564 47.0418 142.369 47.4391C143.165 47.8265 144.159 48.1642 145.332 48.4522C146.178 48.6509 146.983 48.8893 147.769 49.1873C148.554 49.4853 149.25 49.8627 149.847 50.3196C150.454 50.7865 150.931 51.3626 151.279 52.0678C151.627 52.7631 151.806 53.6372 151.806 54.6702C151.806 55.7032 151.597 56.6071 151.17 57.3819C150.752 58.1566 150.185 58.7923 149.489 59.3188C148.783 59.8353 147.968 60.2326 147.023 60.4908C146.088 60.759 145.104 60.8881 144.099 60.8881C143.115 60.8881 142.23 60.8087 141.454 60.6597C140.669 60.5107 140.012 60.312 139.475 60.0935C138.769 59.8154 138.282 59.5273 138.004 59.2294C137.725 58.9314 137.586 58.6334 137.586 58.3255C137.586 57.9679 137.685 57.5805 137.874 57.1931C138.073 56.8058 138.322 56.3588 138.63 55.8522C138.829 56.0211 139.098 56.2296 139.446 56.478C139.794 56.7263 140.211 56.9647 140.699 57.1931C141.186 57.4216 141.723 57.6103 142.309 57.7593C142.896 57.9182 143.523 57.9878 144.199 57.9878C144.696 57.9878 145.193 57.9381 145.661 57.8388C146.138 57.7394 146.566 57.5805 146.943 57.3521C147.321 57.1236 147.63 56.8157 147.868 56.4283C148.107 56.031 148.226 55.5443 148.226 54.9582C148.226 54.3722 148.097 53.8855 147.848 53.508C147.6 53.1306 147.262 52.8127 146.844 52.5644C146.426 52.3161 145.959 52.1075 145.442 51.9585C144.925 51.8095 144.398 51.6705 143.871 51.5612C143.065 51.3924 142.28 51.1738 141.544 50.9056C140.798 50.6375 140.152 50.2799 139.575 49.8329C138.998 49.3859 138.541 48.8198 138.193 48.1543C137.845 47.4788 137.666 46.6743 137.666 45.7108C137.666 44.787 137.864 43.9725 138.252 43.2574C138.65 42.5422 139.177 41.9562 139.853 41.4893C140.529 41.0324 141.295 40.6748 142.15 40.4364C143.006 40.1981 143.901 40.0789 144.825 40.0789C145.889 40.0789 146.864 40.1881 147.749 40.4166C148.634 40.645 149.34 40.9132 149.877 41.2211Z" fill="white"/>
<path d="M40.3232 30.772V56.2C40.3232 56.7066 40.3431 57.2132 40.3829 57.7297C40.4227 58.2462 40.552 58.723 40.7608 59.1401C40.9696 59.5573 41.2978 59.895 41.7254 60.1533C42.1629 60.4016 42.7894 60.5307 43.5948 60.5307C44.0125 60.5307 44.4401 60.5009 44.8776 60.4413C45.3152 60.3817 45.6533 60.3122 45.9118 60.2327V58.723C45.4047 58.723 45.0168 58.6733 44.7583 58.574C44.4898 58.4746 44.3009 58.3256 44.1716 58.1369C44.0423 57.9383 43.9727 57.6999 43.9429 57.4019C43.913 57.1039 43.9031 56.7463 43.9031 56.3291V33.2552C43.9031 33.0069 43.8832 32.7784 43.8534 32.5698C42.9087 32.3712 42.0734 32.0434 41.3574 31.5765C40.9796 31.3381 40.6415 31.06 40.3232 30.772Z" fill="white"/>
<path d="M0.715973 9.96272C1.36234 9.96272 1.93909 10.1216 2.46613 10.4494C2.98322 10.7673 3.30143 11.3235 3.41081 12.1082C4.05718 11.4626 4.93226 10.8865 6.03605 10.3799C7.13984 9.87332 8.45245 9.625 9.9739 9.625C11.8832 9.625 13.3449 10.0422 14.3493 10.8865C15.3536 11.7208 16.0199 12.7737 16.3282 14.0352C16.4674 14.5914 16.5469 15.2172 16.5768 15.9026C16.6066 16.5879 16.6165 17.2534 16.6165 17.8991V29.8383H13.0367V18.0282C13.0367 17.4918 13.0267 16.9852 13.0168 16.4985C13.0068 16.0118 12.9273 15.5549 12.7881 15.1278C12.5892 14.4027 12.1815 13.8365 11.5649 13.4491C10.9484 13.0618 10.0336 12.8631 8.83033 12.8631C7.22933 12.8631 5.95649 13.181 5.00186 13.8067C4.04723 14.4325 3.56992 15.1179 3.56992 15.843V29.8383H0V10.0024H0.208825C0.26849 10.0024 0.338098 9.99252 0.437539 9.98258C0.536979 9.96272 0.63642 9.96272 0.715973 9.96272Z" fill="white"/>
<path d="M29.6333 27.4047C30.4487 27.4047 31.1548 27.3252 31.7613 27.1564C32.3679 26.9875 32.885 26.7789 33.3126 26.5306C33.7502 26.2823 34.1181 26.024 34.4264 25.7558C34.7346 25.4876 34.9832 25.2393 35.1821 25.0208C35.4904 25.4181 35.7688 25.8353 36.0075 26.2823C36.2461 26.7292 36.3654 27.0769 36.3654 27.3352C36.3654 27.5636 36.2958 27.7921 36.1566 28.0404C36.0174 28.2887 35.7787 28.5271 35.4407 28.7853C34.7943 29.2721 33.9689 29.6694 32.9546 29.9972C31.9503 30.3249 30.7272 30.4839 29.2952 30.4839C27.9727 30.4839 26.7396 30.2951 25.5662 29.9177C24.4027 29.5402 23.3785 28.9343 22.5034 28.09C21.6283 27.2458 20.9323 26.1531 20.4251 24.7923C19.908 23.4315 19.6594 21.7728 19.6594 19.816C19.6594 18.048 19.918 16.5183 20.4351 15.237C20.9522 13.9457 21.6383 12.8928 22.4736 12.0585C23.3089 11.234 24.2735 10.6281 25.3574 10.2308C26.4413 9.8335 27.555 9.64478 28.6986 9.64478C30.1305 9.64478 31.3536 9.88316 32.3779 10.3599C33.4021 10.8367 34.2374 11.4724 34.8838 12.277C35.5302 13.0716 36.0075 14.0053 36.3157 15.0482C36.6339 16.0713 36.793 17.1639 36.793 18.2764C36.793 18.6737 36.7831 19.071 36.7732 19.4783C36.7632 19.8855 36.7234 20.2729 36.6737 20.6305H23.4083C23.4879 22.6667 24.0348 24.2957 25.0292 25.5373C26.0236 26.7789 27.565 27.4047 29.6333 27.4047ZM33.2132 17.9486C33.2132 17.1937 33.1336 16.4885 32.9845 15.8429C32.8254 15.1972 32.5668 14.6311 32.2088 14.1443C31.8508 13.6576 31.3636 13.2703 30.7669 12.9921C30.1604 12.714 29.4344 12.575 28.5693 12.575C27.1175 12.575 25.9242 13.0517 24.9894 14.0053C24.0547 14.9588 23.5277 16.27 23.4183 17.9586H33.2132V17.9486Z" fill="white"/>
<path d="M101.807 19.8757C101.807 21.2464 101.638 22.5774 101.3 23.8488C100.962 25.1302 100.425 26.2526 99.6793 27.2359C98.9335 28.2193 97.9789 29.004 96.7955 29.59C95.6221 30.176 94.1902 30.474 92.5096 30.474C90.8291 30.474 89.4071 30.1959 88.2436 29.6297C87.0802 29.0735 86.1355 28.3087 85.3996 27.3551C84.6737 26.4016 84.1367 25.2891 83.7986 24.0177C83.4605 22.7463 83.2915 21.4053 83.2915 20.0048C83.2915 18.6043 83.4904 17.2733 83.8782 16.0118C84.276 14.7503 84.8627 13.6478 85.6482 12.7141C86.4338 11.7705 87.4083 11.0255 88.5718 10.4693C89.7353 9.91305 91.0976 9.625 92.6787 9.625C94.3294 9.625 95.7315 9.90312 96.885 10.4693C98.0385 11.0255 98.9733 11.7804 99.6992 12.7141C100.435 13.6478 100.962 14.7404 101.3 15.9721C101.638 17.2038 101.807 18.505 101.807 19.8757ZM98.0584 19.8757C98.0584 19.0115 97.9789 18.1474 97.8297 17.2931C97.6706 16.4389 97.4021 15.6642 97.0044 14.9788C96.6165 14.2934 96.0696 13.7372 95.3636 13.32C94.6576 12.9028 93.7427 12.6843 92.619 12.6843C91.5451 12.6843 90.66 12.8929 89.9441 13.32C89.2281 13.7372 88.6514 14.2934 88.2337 14.9788C87.8061 15.6642 87.5078 16.4389 87.3288 17.2931C87.1399 18.1474 87.0504 19.0115 87.0504 19.8757C87.0504 20.7498 87.1299 21.6239 87.2791 22.5277C87.4382 23.4217 87.7266 24.2263 88.1442 24.9414C88.5718 25.6566 89.1287 26.2426 89.8347 26.7095C90.5407 27.1763 91.4357 27.4048 92.5395 27.4048C93.6632 27.4048 94.5979 27.1763 95.3238 26.7095C96.0597 26.2526 96.6165 25.6566 97.0143 24.9414C97.4121 24.2263 97.6806 23.4217 97.8397 22.5277C97.9789 21.6338 98.0584 20.7498 98.0584 19.8757Z" fill="white"/>
<path d="M106.203 9.96255C106.849 9.96255 107.436 10.1215 107.953 10.4493C108.47 10.7671 108.788 11.3134 108.897 12.0683C109.295 11.4823 109.882 10.926 110.667 10.4095C111.453 9.89302 112.368 9.63477 113.402 9.63477C113.71 9.63477 114.038 9.66456 114.396 9.72416C114.744 9.78376 115.073 9.87315 115.381 9.99235C115.689 10.1215 115.938 10.2903 116.137 10.5188C116.336 10.7373 116.435 11.0353 116.435 11.4028C116.435 11.8498 116.326 12.3365 116.097 12.853C115.868 13.3695 115.649 13.7966 115.421 14.1343C115.053 13.7966 114.665 13.5384 114.237 13.3596C113.82 13.1808 113.283 13.0815 112.636 13.0815C112.159 13.0815 111.702 13.1609 111.264 13.3099C110.827 13.4688 110.439 13.6774 110.111 13.9456C109.772 14.2138 109.504 14.5118 109.315 14.8495C109.116 15.1872 109.027 15.5349 109.027 15.9024V29.858H105.447V10.0023H105.745C105.835 10.0023 105.914 9.99235 106.004 9.98242C106.073 9.96255 106.143 9.96255 106.203 9.96255Z" fill="white"/>
<path d="M119.03 29.8382V0.0397313H119.289C119.349 0.0397313 119.418 0.0297985 119.518 0.0198657C119.617 0.00993283 119.707 0 119.786 0C120.572 0 121.238 0.198657 121.785 0.605903C122.332 1.01315 122.61 1.74818 122.61 2.81099V29.8382H119.03ZM123.575 19.4981V18.1076L130.814 10.9162C131.6 10.1911 132.405 9.82357 133.221 9.82357C133.529 9.82357 133.807 9.87323 134.056 9.97256C134.314 10.0719 134.533 10.1812 134.732 10.2904C134.951 10.3997 135.17 10.5387 135.368 10.7076L127.294 18.6539L136.621 29.7985C135.945 30.0468 135.249 30.1759 134.513 30.1759C133.956 30.1759 133.4 30.0567 132.853 29.8184C132.306 29.58 131.809 29.1926 131.361 28.6662L123.575 19.4981Z" fill="white"/>
<path d="M50.1479 25.5968C50.0882 25.6763 49.9589 25.8154 49.7501 26.014C49.5413 26.2127 49.2827 26.4113 48.9745 26.6199C48.6662 26.8285 48.3182 27.0172 47.9204 27.1662C47.5226 27.3251 47.105 27.3947 46.6575 27.3947C44.8377 27.3947 43.9229 26.2425 43.9229 23.948V13.1113H50.1876V10.042H43.9229V6.70458C43.9229 5.67157 43.6444 4.96634 43.0776 4.57896C42.5208 4.19158 41.8545 3.99292 41.0988 3.99292C41.0093 3.99292 40.9198 4.00285 40.8203 4.01279C40.7209 4.02272 40.6413 4.03265 40.5916 4.03265H40.343V23.6997C40.343 24.3155 40.3629 24.9413 40.4027 25.567C40.4425 26.2027 40.5618 26.7788 40.7607 27.3152C41.1286 28.2986 41.7451 29.0634 42.6103 29.6296C43.4754 30.1858 44.6389 30.4738 46.1006 30.4738C46.8862 30.4738 47.6121 30.3845 48.2684 30.2255C48.9247 30.0567 49.4816 29.8481 49.9291 29.5898C50.3766 29.3415 50.7246 29.0634 50.9832 28.7654C51.2318 28.4674 51.361 28.1992 51.361 27.9509C51.361 27.5834 51.2417 27.2059 51.0031 26.8186C50.7644 26.4213 50.476 26.014 50.1479 25.5968Z" fill="white"/>
<path d="M74.9583 30.007H71.3785L67.4207 19.7961L63.0851 30.007H59.8831L53.0217 10.2506C53.33 10.1712 53.6283 10.1016 53.9266 10.042C54.215 9.98243 54.5332 9.96257 54.8713 9.96257C56.1939 9.96257 57.069 10.6877 57.5164 12.1478L61.8521 26.014L65.8894 16.1408L63.7414 10.2109C64.2784 10.042 64.8353 9.96257 65.422 9.96257C66.6849 9.96257 67.55 10.638 68.0273 11.9789L73.0789 26.0538L76.5295 12.7338C76.7284 11.9789 77.0168 11.3234 77.4145 10.7771C77.8123 10.2308 78.4089 9.95264 79.2243 9.95264C79.7812 9.95264 80.358 10.0619 80.9546 10.2904L74.9583 30.007Z" fill="white"/>
<path d="M160 43.4362C160 43.8931 159.92 44.3301 159.771 44.7374C159.612 45.1446 159.403 45.5022 159.125 45.82C158.846 46.128 158.498 46.3763 158.111 46.5551C157.713 46.7339 157.265 46.8233 156.778 46.8233C156.261 46.8233 155.804 46.7339 155.406 46.5551C155.008 46.3763 154.67 46.128 154.401 45.82C154.133 45.5121 153.924 45.1446 153.785 44.7374C153.646 44.3301 153.566 43.8931 153.566 43.4362C153.566 42.9792 153.636 42.5521 153.785 42.1449C153.934 41.7376 154.153 41.3801 154.431 41.0721C154.71 40.7642 155.048 40.5258 155.446 40.347C155.843 40.1683 156.291 40.0789 156.788 40.0789C157.275 40.0789 157.723 40.1683 158.121 40.347C158.518 40.5258 158.856 40.7742 159.135 41.0721C159.423 41.3801 159.632 41.7376 159.781 42.1449C159.93 42.5521 160 42.9892 160 43.4362ZM159.453 43.4362C159.453 43.0587 159.393 42.7011 159.274 42.3634C159.145 42.0158 158.966 41.7178 158.747 41.4595C158.518 41.1913 158.23 40.9827 157.902 40.8338C157.574 40.6748 157.196 40.5954 156.788 40.5954C156.37 40.5954 156.002 40.6748 155.674 40.8338C155.346 40.9827 155.068 41.2013 154.839 41.4595C154.61 41.7178 154.431 42.0257 154.312 42.3634C154.183 42.7111 154.123 43.0686 154.123 43.4362C154.123 43.8136 154.183 44.1712 154.302 44.5188C154.421 44.8665 154.59 45.1645 154.819 45.4327C155.048 45.7008 155.316 45.9094 155.644 46.0684C155.973 46.2273 156.351 46.3067 156.778 46.3067C157.186 46.3067 157.564 46.2273 157.892 46.0684C158.23 45.9094 158.508 45.7008 158.737 45.4327C158.966 45.1645 159.145 44.8665 159.264 44.5188C159.393 44.1712 159.453 43.8136 159.453 43.4362ZM158.469 45.2638C158.29 45.3532 158.131 45.3929 157.991 45.3929C157.882 45.3929 157.773 45.3731 157.673 45.3135C157.574 45.2638 157.494 45.1843 157.424 45.0751L156.669 43.8533H156.311V45.3135H155.515V41.4099C155.684 41.3999 155.883 41.3801 156.112 41.3701C156.341 41.3602 156.539 41.3503 156.718 41.3503C157.265 41.3503 157.673 41.4595 157.922 41.688C158.17 41.9065 158.3 42.1946 158.3 42.5422C158.3 42.7011 158.28 42.8501 158.23 42.9693C158.18 43.0984 158.131 43.2077 158.051 43.2971C157.981 43.3964 157.892 43.4759 157.792 43.5454C157.693 43.605 157.594 43.6646 157.494 43.7043L158.469 45.2638ZM157.434 42.6018C157.434 42.1946 157.196 41.986 156.699 41.986C156.609 41.986 156.539 41.986 156.48 41.986C156.42 41.986 156.36 41.9959 156.311 41.9959V43.2375H156.748C156.987 43.2375 157.166 43.1779 157.275 43.0686C157.375 42.9594 157.434 42.8005 157.434 42.6018Z" fill="white"/>
</svg>
